<?xml version="1.0" encoding="UTF-8" standalone="no"?>
<!-- Uploaded to: SVG Repo, www.svgrepo.com, Generator: SVG Repo Mixer Tools -->

<svg
   width="800px"
   height="800px"
   viewBox="0 0 24 24"
   fill="none"
   version="1.1"
   id="svg4"
   sodipodi:docname="code-square-svgrepo-com.svg"
   inkscape:version="1.3.1 (9b9bdc1480, 2023-11-25, custom)"
   xmlns:inkscape="http://www.inkscape.org/namespaces/inkscape"
   xmlns:sodipodi="http://sodipodi.sourceforge.net/DTD/sodipodi-0.dtd"
   xmlns="http://www.w3.org/2000/svg"
   xmlns:svg="http://www.w3.org/2000/svg">
  <defs
     id="defs4" />
  <sodipodi:namedview
     id="namedview4"
     pagecolor="#ffffff"
     bordercolor="#000000"
     borderopacity="0.25"
     inkscape:showpageshadow="2"
     inkscape:pageopacity="0.0"
     inkscape:pagecheckerboard="0"
     inkscape:deskcolor="#d1d1d1"
     showgrid="false"
     inkscape:zoom="0.63"
     inkscape:cx="400"
     inkscape:cy="400"
     inkscape:window-width="1366"
     inkscape:window-height="704"
     inkscape:window-x="0"
     inkscape:window-y="0"
     inkscape:window-maximized="1"
     inkscape:current-layer="svg4" />
  <path
     d="M15.5 9L15.6716 9.17157C17.0049 10.5049 17.6716 11.1716 17.6716 12C17.6716 12.8284 17.0049 13.4951 15.6716 14.8284L15.5 15"
     stroke="#1C274C"
     stroke-width="1.5"
     stroke-linecap="round"
     id="path1"
     style="stroke:#212121;stroke-opacity:1" />
  <path
     d="M13.2942 7.17041L12.0001 12L10.706 16.8297"
     stroke="#1C274C"
     stroke-width="1.5"
     stroke-linecap="round"
     id="path2"
     style="stroke:#212121;stroke-opacity:1" />
  <path
     d="M8.49994 9L8.32837 9.17157C6.99504 10.5049 6.32837 11.1716 6.32837 12C6.32837 12.8284 6.99504 13.4951 8.32837 14.8284L8.49994 15"
     stroke="#1C274C"
     stroke-width="1.5"
     stroke-linecap="round"
     id="path3"
     style="stroke:#212121;stroke-opacity:1" />
  <path
     d="m 22,12 c 0,4.714 0,7.0711 -1.4645,8.5355 C 19.0711,22 16.714,22 12,22 7.28595,22 4.92893,22 3.46447,20.5355 2,19.0711 2,16.714 2,12 2,7.28595 2,4.92893 3.46447,3.46447 4.7392198,2.1897115 6.6902585,2.0245758 10.283465,2.0031836 10.818212,2 11.389329,2 12,2 16.714,2 19.0711,2 20.5355,3.46447 21.5093,4.43821 21.8356,5.80655 21.9449,8"
     stroke="#1c274c"
     stroke-width="1.5"
     stroke-linecap="round"
     id="path4"
     sodipodi:nodetypes="ccscscsscc"
     style="stroke:#212121;stroke-opacity:1" />
</svg>
